<svg stroke-width="0.501" stroke-linejoin="bevel" fill-rule="evenodd" xmlns="http://www.w3.org/2000/svg" overflow="visible" width="169" height="150" viewBox="0 0 135 120"><g fill="none" stroke="#000" transform="matrix(1 0 0-1 0 120)"><path d="m15.9 9.5l104 .7c5.4 0 7.5 3.8 4.7 8.4l-52 88c-2.7 4.6-7.1 4.6-9.8-.1l-51-89c-2.7-4.6-.5-8.4 4.9-8.3" stroke="#900202" stroke-width="19" fill="#fffc00" stroke-miterlimit="80"/><g fill="#000" stroke="none"><path d="m61 70.9v-15c0-4.1 2.9-7.4 6.5-7.4 3.6 0 6.5 3.3 6.5 7.4v15c0 4.1-2.9 7.4-6.5 7.4-3.6 0-6.5-3.3-6.5-7.4"/><path d="m63 40c4.5 2.3 10 .4 12.2-4.1 2.3-4.5.4-10-4.1-12.2-4.5-2.3-10-.4-12.2 4.1-2.3 4.5-.4 10 4.1 12.2"/></g></g></svg>